<svg width="200" height="253" viewBox="0 0 200 253" fill="none" xmlns="http://www.w3.org/2000/svg">
<mask id="path-1-inside-1" fill="white">
<path fill-rule="evenodd" clip-rule="evenodd" d="M179.872 53.0267C179.908 52.2711 179.926 51.5111 179.926 50.7472C179.926 22.7203 155.626 0 125.651 0C104.849 0 86.7804 10.9417 77.6694 27.0055C72.7496 22.3497 65.9173 19.4647 58.3643 19.4647C43.3767 19.4647 31.2268 30.8248 31.2268 44.8383C31.2268 45.475 31.2519 46.1062 31.3012 46.7311C12.9483 54.1515 0 72.1399 0 93.1524C0 120.795 22.4091 143.204 50.052 143.204H149.948C177.591 143.204 200 120.795 200 93.1524C200 76.7291 192.09 62.1532 179.872 53.0267Z"/>
</mask>
<path fill-rule="evenodd" clip-rule="evenodd" d="M179.872 53.0267C179.908 52.2711 179.926 51.5111 179.926 50.7472C179.926 22.7203 155.626 0 125.651 0C104.849 0 86.7804 10.9417 77.6694 27.0055C72.7496 22.3497 65.9173 19.4647 58.3643 19.4647C43.3767 19.4647 31.2268 30.8248 31.2268 44.8383C31.2268 45.475 31.2519 46.1062 31.3012 46.7311C12.9483 54.1515 0 72.1399 0 93.1524C0 120.795 22.4091 143.204 50.052 143.204H149.948C177.591 143.204 200 120.795 200 93.1524C200 76.7291 192.09 62.1532 179.872 53.0267Z" fill="#9DCAFD"/>
<path d="M179.872 53.0267L171.881 52.649L171.68 56.8933L175.084 59.4361L179.872 53.0267ZM77.6694 27.0055L72.1706 32.8161L79.5891 39.8364L84.628 30.9523L77.6694 27.0055ZM31.3012 46.7311L34.2999 54.1478L39.7376 51.9493L39.2764 46.1021L31.3012 46.7311ZM187.863 53.4045C187.905 52.5231 187.926 51.6372 187.926 50.7472H171.926C171.926 51.3851 171.911 52.0191 171.881 52.649L187.863 53.4045ZM187.926 50.7472C187.926 17.8041 159.529 -8 125.651 -8V8C151.723 8 171.926 27.6365 171.926 50.7472H187.926ZM125.651 -8C102.043 -8 81.2787 4.42616 70.7107 23.0587L84.628 30.9523C92.2821 17.4572 107.655 8 125.651 8V-8ZM83.1681 21.1948C76.7679 15.1382 67.9699 11.4647 58.3643 11.4647V27.4647C63.8646 27.4647 68.7312 29.5613 72.1706 32.8161L83.1681 21.1948ZM58.3643 11.4647C39.4734 11.4647 23.2268 25.9086 23.2268 44.8383H39.2268C39.2268 35.7411 47.28 27.4647 58.3643 27.4647V11.4647ZM23.2268 44.8383C23.2268 45.6852 23.2602 46.5262 23.3259 47.3601L39.2764 46.1021C39.2436 45.6862 39.2268 45.2648 39.2268 44.8383H23.2268ZM8 93.1524C8 75.511 18.8657 60.3882 34.2999 54.1478L28.3024 39.3144C7.03086 47.9149 -8 68.7687 -8 93.1524H8ZM50.052 135.204C26.8273 135.204 8 116.377 8 93.1524H-8C-8 125.214 17.9908 151.204 50.052 151.204V135.204ZM149.948 135.204H50.052V151.204H149.948V135.204ZM192 93.1524C192 116.377 173.173 135.204 149.948 135.204V151.204C182.009 151.204 208 125.214 208 93.1524H192ZM175.084 59.4361C185.368 67.1174 192 79.3594 192 93.1524H208C208 74.0988 198.812 57.189 184.659 46.6174L175.084 59.4361Z" fill="#2782CC" mask="url(#path-1-inside-1)"/>
<path fill-rule="evenodd" clip-rule="evenodd" d="M85 161C85 158.791 83.2091 157 81 157C78.7909 157 77 158.791 77 161V191C77 196.523 72.5228 201 67 201H39.373C37.6859 195.777 32.7841 192 27 192C19.8203 192 14 197.82 14 205C14 212.18 19.8203 218 27 218C32.7841 218 37.6859 214.223 39.373 209H67C76.9411 209 85 200.941 85 191V161ZM117 161C117 158.791 118.791 157 121 157C123.209 157 125 158.791 125 161V191C125 196.523 129.477 201 135 201H165C165.208 201 165.413 201.016 165.612 201.047C167.285 195.8 172.199 192 178 192C185.18 192 191 197.82 191 205C191 212.18 185.18 218 178 218C172.199 218 167.285 214.2 165.612 208.953C165.413 208.984 165.208 209 165 209H135C125.059 209 117 200.941 117 191V161ZM100.5 157C102.709 157 104.5 158.791 104.5 161V227.477C109.98 229.005 114 234.033 114 240C114 247.18 108.18 253 101 253C93.8203 253 88 247.18 88 240C88 234.402 91.5381 229.631 96.5 227.8V161C96.5 158.791 98.2909 157 100.5 157ZM32 205C32 207.761 29.7614 210 27 210C24.2386 210 22 207.761 22 205C22 202.239 24.2386 200 27 200C29.7614 200 32 202.239 32 205ZM178 210C180.761 210 183 207.761 183 205C183 202.239 180.761 200 178 200C175.239 200 173 202.239 173 205C173 207.761 175.239 210 178 210ZM106 240C106 242.761 103.761 245 101 245C98.2386 245 96 242.761 96 240C96 237.239 98.2386 235 101 235C103.761 235 106 237.239 106 240Z" fill="#2782CC"/>
</svg>
