<svg width="253" height="253" viewBox="0 0 253 253" fill="none" xmlns="http://www.w3.org/2000/svg">
<path d="M220.73 173.306H135.328C128.839 173.306 123.559 168.041 123.559 161.569C123.559 155.098 128.839 149.833 135.328 149.833H203.892C202.515 146.701 201.745 143.245 201.745 139.611C201.745 135.978 202.515 132.521 203.891 129.389H135.328C117.534 129.389 103.058 143.825 103.058 161.569C103.058 179.314 117.534 193.75 135.328 193.75H220.73C227.219 193.75 232.499 199.015 232.499 205.486C232.499 211.957 227.219 217.222 220.73 217.222H79.1809C80.5576 220.355 81.3274 223.811 81.3274 227.444C81.3274 231.078 80.5581 234.534 79.1809 237.667H220.73C238.524 237.667 253 223.23 253 205.486C253 187.742 238.523 173.306 220.73 173.306Z" fill="#2782CC"/>
<path d="M217.123 0H154.101V72.1975H217.123V0Z" fill="#66ACFF"/>
<path d="M237.624 116.196V0H217.123V116.195C220.264 114.823 223.729 114.055 227.373 114.055C231.016 114.055 234.482 114.823 237.624 116.196Z" fill="#9DCAFD"/>
<path d="M203.892 149.833C207.854 158.85 216.885 165.167 227.373 165.167V114.055C223.729 114.055 220.264 114.823 217.123 116.195C211.222 118.774 206.478 123.505 203.892 129.389C202.515 132.521 201.746 135.977 201.746 139.611C201.746 143.244 202.515 146.701 203.892 149.833Z" fill="#2488FF"/>
<path d="M227.373 165.167C241.503 165.167 253 153.702 253 139.611C253 129.153 246.666 120.148 237.624 116.196C234.483 114.823 231.016 114.055 227.373 114.055V165.167Z" fill="#9DCAFD"/>
<path d="M30.0725 227.444C30.0725 241.536 41.5687 253 55.6994 253V201.889C41.5687 201.889 30.0725 213.353 30.0725 227.444Z" fill="#2488FF"/>
<path d="M79.1809 217.222C75.2185 208.206 66.1871 201.889 55.7001 201.889V253C66.1871 253 75.2185 246.683 79.1809 237.667C80.5576 234.534 81.3274 231.078 81.3274 227.444C81.3269 223.811 80.5576 220.355 79.1809 217.222Z" fill="#9DCAFD"/>
<path d="M75.4968 99.4105C75.4968 110.681 66.2968 119.855 54.9954 119.855V187.48L98.1458 133.379C105.783 123.75 109.991 111.682 109.991 99.4105C109.991 69.1681 85.317 44.5683 54.9954 44.5683V78.9661C66.2968 78.9661 75.4968 88.1354 75.4968 99.4105Z" fill="#94C5FD"/>
<path d="M75.4968 99.4105C75.4968 88.1354 66.2968 78.9661 54.9954 78.9661V119.855C66.2968 119.855 75.4968 110.681 75.4968 99.4105Z" fill="#D8D7DA"/>
<path d="M54.9952 119.855C43.6886 119.855 34.4937 110.681 34.4937 99.4105C34.4937 88.1354 43.6886 78.9661 54.9952 78.9661V44.5683C24.6684 44.5683 0 69.1681 0 99.4105C0 111.682 4.20793 123.75 11.8652 133.405L54.9952 187.48V119.855Z" fill="#9DCAFD"/>
<path d="M34.4937 99.4105C34.4937 110.681 43.6886 119.855 54.9951 119.855V78.9661C43.6881 78.9661 34.4937 88.1354 34.4937 99.4105Z" fill="white"/>
</svg>
